<svg width="246" height="44" viewBox="0 0 246 44" fill="none" xmlns="http://www.w3.org/2000/svg">
<path d="M127.96 33.8593H119.548V32.3617C119.548 28.5137 119.562 24.6599 119.548 20.8148C119.537 20.0582 119.46 19.3041 119.316 18.5612C119.031 16.9895 118.215 15.8057 116.521 15.5661C114.781 15.3208 113.098 15.8514 112.413 17.4402C111.628 19.2488 111.156 21.1781 111.019 23.1452C110.805 26.6453 110.959 30.1682 110.959 33.808H102.509C102.509 32.8552 102.509 31.9167 102.509 30.9782C102.487 27.1787 102.529 23.3763 102.413 19.5682C102.335 17.0352 101.086 15.5747 99.1007 15.4919C97.4149 15.4263 95.9259 16.0938 95.2356 17.657C94.5931 19.0193 94.2064 20.488 94.0946 21.99C93.9406 25.8751 94.0432 29.7745 94.0432 33.7937H85.6797V9.11376H93.1647V13.1929L93.4499 13.4296C95.4182 10.1606 98.3334 8.61457 101.99 8.46338C105.719 8.3122 108.645 9.67568 110.394 13.2242C113.409 8.77429 117.571 7.88715 122.374 8.79139C124.973 9.28203 126.545 10.9393 127.323 13.3554C127.685 14.3871 127.891 15.4666 127.937 16.5588C127.991 22.2809 127.96 27.9831 127.96 33.8593Z" fill="#EFEFEF"/>
<path d="M141.988 44.0001H133.57V9.03112C135.941 9.03112 138.294 9.00257 140.642 9.07673C140.878 9.07673 141.255 9.70999 141.286 10.0723C141.375 11.0963 141.318 12.1347 141.463 13.2557C142.961 10.9052 145.04 9.54744 147.656 8.83431C152.174 7.62199 156.542 9.19369 159.109 13.076C162.603 18.3588 161.941 26.768 158.048 31.1865C154.431 35.297 145.782 36.0358 141.988 30.7501V44.0001ZM152.907 21.5051C152.505 20.1388 152.311 18.7382 151.701 17.5545C149.924 14.0858 145.092 14.0002 143.081 17.3462C141.506 19.9705 141.537 22.6918 142.955 25.3332C143.859 27.0219 145.331 28.0317 147.339 28.0117C149.256 27.9918 150.782 27.1417 151.618 25.4445C152.217 24.2521 152.474 22.8829 152.907 21.5051Z" fill="#EFEFEF"/>
<path d="M29.0105 1.71444L28.3259 8.42919C26.4005 7.8159 24.6177 7.07144 22.7521 6.69491C19.1893 5.97608 15.735 6.30123 12.7969 8.72586C9.37386 11.5498 8.1159 16.7386 9.68193 21.2113C10.3881 23.2232 11.7127 24.9601 13.466 26.1734C15.2193 27.3867 17.3116 28.0142 19.4432 27.9661C21.8279 27.9347 24.2098 27.3442 26.5888 26.9677C27.2786 26.8208 27.9603 26.6379 28.6312 26.42C28.7709 28.5223 28.9392 30.4934 28.9963 32.4673C28.9963 32.7525 28.5484 33.2774 28.2232 33.3602C21.9163 34.9861 15.638 35.1458 9.53931 32.5044C3.66314 29.9714 0.616655 25.3218 0.0889402 19.0434C-0.307559 14.3168 0.573868 9.87257 3.70022 6.09015C6.51565 2.6814 10.2867 1.08119 14.5198 0.3595C19.3862 -0.45917 24.1384 0.174087 29.0105 1.71444Z" fill="#EFEFEF"/>
<path d="M67.4051 34.5841C62.2277 34.3274 58.1658 33.2777 55.1136 29.8204C50.0846 24.1154 50.8548 11.4816 62.3846 8.94855C66.7176 7.99581 71.0049 8.22972 74.9556 10.449C79.7678 13.1532 81.5164 17.5803 81.1171 22.8203C80.6892 28.3114 77.5229 31.8913 72.357 33.5971C70.5428 34.199 68.5803 34.3616 67.4051 34.5841ZM60.7616 21.1773C61.0668 22.6035 61.2094 23.8814 61.6173 25.0709C62.4331 27.3786 64.3643 28.6281 66.7518 28.5967C67.8519 28.5893 68.9226 28.2414 69.817 27.6009C70.7113 26.9604 71.3854 26.0587 71.7466 25.0196C72.6675 22.5945 72.5999 19.9047 71.5583 17.5289C70.7026 15.5065 69.011 14.4225 66.883 14.3512C64.6638 14.277 62.7355 15.1214 61.8341 17.3378C61.3549 18.5901 61.1295 19.9564 60.773 21.1887L60.7616 21.1773Z" fill="#EFEFEF"/>
<path d="M201.647 34.6039C195.887 34.3186 191.64 33.2518 188.574 29.4693C183.984 23.8071 184.76 11.8552 195.468 9.13672C200.568 7.84168 205.48 8.19253 209.905 11.2675C213.824 13.9888 215.182 18.0108 214.857 22.5834C214.503 27.5297 212.118 31.2636 207.395 33.0949C205.221 33.9364 202.859 34.2958 201.647 34.6039ZM194.564 21.103C194.849 22.4807 194.96 23.7187 195.331 24.8768C196.093 27.2701 198.035 28.6165 200.466 28.608C201.592 28.6189 202.693 28.2729 203.611 27.6195C204.529 26.9662 205.216 26.039 205.575 24.971C206.391 22.6667 206.367 20.1478 205.506 17.8596C204.685 15.6632 202.965 14.4366 200.628 14.3482C198.346 14.2569 196.429 15.3837 195.548 17.5345C195.072 18.6955 194.866 19.9705 194.564 21.103Z" fill="#EFEFEF"/>
<path d="M227.82 33.848H219.402C219.37 33.3574 219.311 32.8611 219.308 32.3619C219.308 25.0908 219.339 17.8141 219.273 10.5516C219.273 9.24228 219.701 8.93421 220.908 8.98556C222.888 9.07398 224.876 9.01118 227.001 9.01118V13.25C228.373 11.3874 229.982 10.0011 232.07 9.20521C239.141 6.50958 245 10.1836 245.739 17.7627C245.776 18.1393 245.773 18.5215 245.773 18.9037C245.773 23.8386 245.773 28.7762 245.773 33.8195H237.33C237.33 33.249 237.33 32.7042 237.33 32.1536C237.256 27.9747 237.301 23.7929 237.045 19.6254C236.893 17.0267 235.536 15.6832 233.527 15.4607C232.428 15.342 231.322 15.6107 230.4 16.2205C229.477 16.8304 228.797 17.743 228.476 18.801C228.08 20.0161 227.864 21.2829 227.837 22.5606C227.768 26.2717 227.82 29.9772 227.82 33.848Z" fill="#EFEFEF"/>
<path d="M163.56 14.8818C163.56 13.0277 163.509 11.4189 163.609 9.81863C163.629 9.53337 164.253 9.07699 164.624 9.04846C165.891 8.95148 167.166 9.01134 168.618 9.01134C168.618 7.46243 168.675 6.05049 168.595 4.64706C168.543 3.71714 168.88 3.31778 169.761 3.06676C172.115 2.39071 174.44 1.61194 176.97 0.813232V8.95431H182.96V14.8818C181.48 14.8818 179.979 14.9332 178.487 14.8647C177.418 14.8162 176.961 15.0872 177.001 16.291C177.095 19.0408 177.001 21.7992 177.058 24.5632C177.115 28.2572 178.502 29.384 182.193 28.8135C182.421 28.7764 182.652 28.7564 183.131 28.6965V34.0764C179.777 34.6469 176.239 35.0262 172.796 33.7711C169.756 32.6615 168.729 30.0629 168.635 27.0877C168.523 23.5307 168.549 19.9565 168.612 16.4022C168.635 15.1871 168.204 14.8077 167.052 14.8875C165.959 14.9417 164.869 14.8818 163.56 14.8818Z" fill="#EFEFEF"/>
<path d="M41.3473 33.8596C40.8168 33.8938 40.4916 33.9338 40.1692 33.9338C37.8016 33.9338 35.4312 33.9338 32.9609 33.9338V9.03421C35.2971 9.03421 37.6533 9.00852 40.0038 9.08268C40.2206 9.08268 40.56 9.75021 40.5914 10.1267C40.6741 11.1337 40.6199 12.152 40.7797 13.2474C43.0389 9.09412 46.4134 7.75342 51.0173 8.806C50.8861 11.0652 50.7549 13.3101 50.618 15.6692C49.9847 15.6264 49.477 15.6178 48.9664 15.5522C44.9729 15.0416 41.9692 17.1781 41.5898 21.2001C41.2703 24.5889 41.4072 28.0205 41.3473 31.435C41.3359 32.1937 41.3473 32.9497 41.3473 33.8596Z" fill="#EFEFEF"/>
</svg>
