<svg width="139" height="40" viewBox="0 0 139 40" fill="none" xmlns="http://www.w3.org/2000/svg">
<path d="M67.519 15.546C70.4374 12.4765 75.3666 12.3166 78.3635 13.9483C79.2164 14.4132 80.0115 14.9655 80.6112 15.7251C80.9917 16.2049 81.1635 16.0893 81.5455 15.7384C84.6667 12.8807 88.3211 12.1759 92.2478 13.5367C95.3854 14.625 96.761 17.2384 97.2614 20.3804C97.3766 21.2103 97.4262 22.048 97.4095 22.8857C97.4095 28.1628 97.3962 33.44 97.4199 38.7171C97.4199 39.2754 97.2822 39.4101 96.7328 39.3982C94.8346 39.3612 92.9349 39.3583 91.0366 39.3982C90.3881 39.4116 90.1704 39.2768 90.1764 38.5691C90.2119 33.7613 90.1956 28.9535 90.1941 24.1443C90.2106 23.5527 90.161 22.9613 90.0461 22.3808C89.6433 20.604 88.5654 19.529 87.0373 19.3868C85.0947 19.2047 83.4837 20.1064 82.7804 21.7722C82.5802 22.2488 82.4795 22.7612 82.4842 23.2781C82.4946 28.4072 82.4842 33.5362 82.502 38.6653C82.502 39.2235 82.3909 39.4056 81.7913 39.3982C79.819 39.3568 77.8438 39.3642 75.8685 39.3982C75.3444 39.4071 75.2185 39.2502 75.22 38.7408C75.2407 33.9582 75.2333 29.1742 75.2289 24.3901C75.2515 23.7246 75.2043 23.0586 75.0882 22.403C74.7773 20.9104 74.0414 19.7555 72.4763 19.4416C70.8476 19.1218 69.3861 19.5438 68.3304 20.9223C67.7912 21.6023 67.5031 22.4474 67.5145 23.3151C67.5338 28.4442 67.5145 33.5732 67.5367 38.7023C67.5367 39.2398 67.4316 39.4086 66.8601 39.3968C64.8878 39.3568 62.9141 39.3657 60.9374 39.3968C60.4606 39.3968 60.3125 39.2857 60.3125 38.7897C60.3293 30.5541 60.3293 22.3181 60.3125 14.0816C60.3125 13.5914 60.4606 13.4656 60.9374 13.473C62.9348 13.4997 64.9352 13.5026 66.9297 13.473C67.4375 13.4641 67.5649 13.6314 67.5219 14.0964C67.4894 14.5317 67.519 14.9759 67.519 15.546Z" fill="white"/>
<path d="M18.9327 14.6205C19.0112 13.4937 19.0112 13.4937 20.1424 13.4937C21.9192 13.4937 23.696 13.507 25.4729 13.4848C25.9245 13.4848 26.114 13.5574 26.114 14.0771C26.0962 22.3363 26.0962 30.5956 26.114 38.8548C26.114 39.416 25.9023 39.4886 25.4255 39.4826C23.5761 39.459 21.7238 39.4308 19.8774 39.493C19.1148 39.5197 18.8409 39.3005 18.9712 38.5617C18.9757 38.4418 18.9648 38.3218 18.9386 38.2048C11.7395 41.56 5.16828 38.2048 2.40533 34.2158C-0.970627 29.3444 -0.787022 22.5732 2.91912 17.9639C6.224 13.8491 12.5776 11.5096 18.9327 14.6205ZM12.9907 20.2338C9.56442 20.2086 6.86366 22.899 6.85033 26.3579C6.837 29.8375 9.48446 32.5456 12.9137 32.5605C16.2689 32.5753 18.9238 29.916 18.9564 26.506C18.9904 22.9819 16.3992 20.259 12.9907 20.2338Z" fill="white"/>
<path d="M47.6244 37.0379C46.3108 38.3884 44.6325 39.3274 42.7944 39.7402C39.0927 40.5901 35.2429 39.3108 33.2647 36.5404C32.142 34.9553 31.5453 33.0576 31.559 31.1152C31.5072 25.3953 31.5382 19.674 31.5234 13.9541C31.5234 13.5543 31.6463 13.4625 32.0269 13.4655C34.0732 13.4833 36.121 13.4995 38.1673 13.4581C38.7936 13.4448 38.7477 13.7675 38.7462 14.1851C38.7403 19.022 38.7403 23.855 38.7462 28.6839C38.7306 29.2013 38.7644 29.7189 38.8469 30.2298C39.3103 32.5781 40.9702 33.7479 43.4207 33.4873C45.8357 33.237 47.5444 31.4913 47.5444 29.2718C47.5444 24.2375 47.5548 19.212 47.5311 14.1806C47.5311 13.5987 47.6792 13.4403 48.2596 13.4536C50.2067 13.4907 52.1567 13.4862 54.1053 13.4536C54.6265 13.4448 54.816 13.5351 54.8146 14.1214C54.7928 22.3333 54.7928 30.5447 54.8146 38.7555C54.8146 39.216 54.7287 39.3878 54.2223 39.3789C52.2248 39.3478 50.2244 39.3508 48.2285 39.3789C47.7428 39.3789 47.5829 39.253 47.6214 38.7674C47.6569 38.2699 47.6244 37.7531 47.6244 37.0379Z" fill="white"/>
<path d="M109.869 15.8228C113.291 12.3817 118.278 12.3358 121.419 13.9097C124.005 15.2083 125.314 17.4189 125.829 20.1819C125.963 20.9593 126.024 21.7475 126.012 22.5362C126.012 27.911 126.001 33.2859 126.022 38.6608C126.022 39.216 125.915 39.41 125.313 39.4011C123.366 39.3582 121.416 39.3656 119.468 39.4011C118.947 39.41 118.82 39.2664 118.821 38.7511C118.842 33.8945 118.835 29.0363 118.833 24.1797C118.833 23.312 118.749 22.4562 118.389 21.6552C117.523 19.7614 115.368 18.9677 113.11 19.6192C111.473 20.0931 109.804 21.864 109.853 24.0257C109.954 28.9046 109.875 33.7879 109.897 38.6697C109.897 39.2279 109.786 39.4174 109.187 39.41C107.214 39.3671 105.241 39.3789 103.264 39.41C102.8 39.41 102.694 39.2826 102.695 38.834C102.709 30.5748 102.709 22.3151 102.695 14.0548C102.695 13.5884 102.835 13.4818 103.28 13.4877C105.303 13.5114 107.325 13.5084 109.351 13.4877C109.763 13.4877 109.918 13.5929 109.891 14.0193C109.843 14.5612 109.869 15.1239 109.869 15.8228Z" fill="white"/>
<path d="M131.3 26.3771C131.3 22.36 131.322 18.3414 131.279 14.3229C131.271 13.5825 131.49 13.4463 132.168 13.4656C134.016 13.5159 135.87 13.507 137.715 13.4656C138.307 13.4522 138.505 13.5692 138.504 14.2059C138.479 22.3664 138.479 30.526 138.504 38.6845C138.504 39.2161 138.406 39.4026 137.824 39.3908C135.902 39.3483 133.977 39.3483 132.049 39.3908C131.457 39.4026 131.268 39.2857 131.274 38.6504C131.317 34.5593 131.3 30.4667 131.3 26.3771Z" fill="white"/>
<path d="M131.016 3.90777C131.031 1.70008 132.816 -0.0248996 135.061 0.000271997C136.115 0.0175509 137.12 0.452979 137.853 1.21077C138.586 1.96857 138.989 2.98662 138.971 4.04102C138.954 5.09542 138.519 6.09977 137.761 6.83313C137.003 7.56649 135.985 7.9688 134.931 7.95152C132.69 7.91154 131.001 6.16729 131.016 3.90777Z" fill="white"/>
</svg>
