<svg width="271" height="44" viewBox="0 0 271 44" fill="none" xmlns="http://www.w3.org/2000/svg">
<path d="M230.845 21.9316C230.845 18.6952 230.867 15.4589 230.828 12.2202C230.819 11.4351 231.027 10.9717 231.749 10.5599C237.709 7.1683 243.651 3.74356 249.573 0.285672C250.237 -0.101614 250.713 -0.0910766 251.371 0.292699C257.299 3.74434 263.24 7.17023 269.192 10.5704C269.85 10.946 270.115 11.3403 270.112 12.1207C270.077 18.7096 270.077 25.2986 270.112 31.8875C270.112 32.6024 269.878 33.0026 269.265 33.3559C263.246 36.8021 257.24 40.2697 251.246 43.7588C250.653 44.104 250.231 44.0631 249.666 43.7355C243.674 40.2534 237.672 36.7904 231.659 33.3466C231.037 32.9956 230.825 32.5825 230.833 31.87C230.867 28.5599 230.845 25.2452 230.845 21.9316ZM266.667 22.0486C266.667 19.3189 266.652 16.5903 266.679 13.8582C266.679 13.2861 266.513 12.9398 266.004 12.6484C261.135 9.85903 256.275 7.05441 251.422 4.23459C250.789 3.86719 250.229 3.81573 249.573 4.19717C244.722 7.01698 239.862 9.82155 234.993 12.6109C234.452 12.921 234.238 13.2709 234.241 13.898C234.266 19.2802 234.266 24.6625 234.241 30.0447C234.241 30.7292 234.495 31.0825 235.06 31.4078C239.933 34.194 244.792 37.0022 249.638 39.8321C250.269 40.2007 250.724 40.1563 251.329 39.8041C256.142 36.996 260.97 34.2136 265.813 31.457C266.499 31.0685 266.693 30.6309 266.681 29.8867C266.641 27.274 266.667 24.6613 266.667 22.0486Z" fill="white"/>
<path d="M85.454 17.9287C85.4626 22.8803 85.4688 27.8336 85.4727 32.7883C85.4727 34.018 85.3557 34.1128 84.1272 34.128C83.4252 34.1374 82.7231 34.128 82.0211 34.1151C81.5531 34.1151 81.3015 33.8671 81.2886 33.3932C81.2805 33.082 81.2734 32.7696 81.2734 32.4572C81.2734 25.4369 81.2734 18.4189 81.2734 11.4033C81.2734 9.78984 81.2734 9.78869 82.8893 9.78401C83.5913 9.78401 84.2933 9.81205 84.9954 9.77812C85.6717 9.74536 86.0484 10.0122 86.3257 10.6498C87.504 13.3667 88.7302 16.0636 89.9412 18.7676C91.2001 21.5757 92.4622 24.3839 93.7274 27.192C93.8328 27.426 93.8597 27.736 94.1955 27.8238C94.6143 27.6506 94.6319 27.213 94.7805 26.876C97.0726 21.6681 99.3823 16.4626 101.616 11.2325C102.084 10.1479 102.641 9.58271 103.869 9.76641C104.518 9.86235 105.193 9.76643 105.859 9.79218C106.678 9.82494 106.761 9.92441 106.806 10.7739C106.818 11.0079 106.806 11.2419 106.806 11.4759V32.6468C106.806 32.841 106.806 33.0364 106.806 33.2318C106.769 34.1526 106.689 34.2497 105.801 34.2778C105.022 34.3024 104.242 34.2778 103.461 34.2696C102.891 34.2614 102.603 33.9701 102.612 33.3921C102.612 33.0809 102.605 32.7685 102.605 32.456C102.605 28.0879 102.605 23.7197 102.605 19.3515V18.0644C102.137 18.1417 102.151 18.4728 102.061 18.7021C100.219 23.4221 98.3819 28.1444 96.5496 32.8691C96.0757 34.0918 96.0711 34.1082 94.7887 34.121C94.3207 34.1257 93.8526 34.1257 93.3846 34.121C92.1479 34.1093 92.1186 34.0952 91.667 32.965C90.6381 30.3955 89.6136 27.8246 88.5933 25.252C87.635 22.823 86.6931 20.3881 85.743 17.9556C85.681 17.7743 85.7231 17.4583 85.4049 17.5566C85.2715 17.6034 85.3745 17.8094 85.454 17.9287Z" fill="white"/>
<path d="M54.6744 17.758L54.6498 32.3836C54.6498 34.1281 54.6498 34.1386 52.9217 34.1304C50.3592 34.1211 50.6096 34.3715 50.6073 31.8009C50.6003 25.1706 50.6003 18.5423 50.6073 11.9159C50.6073 11.6047 50.6073 11.2923 50.6073 10.9799C50.6354 9.88002 50.7056 9.80983 51.83 9.7876C52.6104 9.77472 53.3932 9.82619 54.1701 9.77354C54.947 9.72089 55.3788 10.045 55.6841 10.7529C56.784 13.2919 57.9271 15.8122 59.0586 18.3383C60.3479 21.2205 61.6401 24.1012 62.9349 26.9803C62.9766 27.0895 63.0238 27.1965 63.0765 27.3009C63.3678 27.8005 63.6288 27.818 63.8955 27.2833C64.3916 26.2689 64.8409 25.2299 65.2996 24.1944C67.2489 19.7295 69.2052 15.2669 71.1288 10.7903C71.4283 10.0883 71.8097 9.72209 72.6101 9.7724C73.5028 9.82856 74.4026 9.79699 75.3012 9.7888C75.8862 9.78294 76.1588 10.0649 76.1448 10.6441C76.1378 10.9167 76.1448 11.1905 76.1448 11.4631V32.5181C76.1448 32.7521 76.1518 32.9862 76.1448 33.2202C76.0991 34.1071 75.9903 34.2404 75.1175 34.2732C74.3382 34.3036 73.5578 34.2732 72.7774 34.2732C72.1924 34.2732 71.9256 33.983 71.9455 33.4038C71.956 33.0914 71.9455 32.779 71.9455 32.4678C71.9455 28.0996 71.9455 23.7314 71.9455 19.3633V17.9733C71.4634 18.2073 71.4084 18.5782 71.2914 18.8766C69.5324 23.3859 67.7813 27.8941 66.0379 32.4011C65.9396 32.6562 65.8039 32.9007 65.736 33.1617C65.543 33.8695 65.1124 34.1784 64.3682 34.1304C63.7058 34.0924 63.0416 34.0924 62.3792 34.1304C61.697 34.1655 61.3191 33.8894 61.0687 33.2424C60.0531 30.6262 58.9895 28.0286 57.9529 25.4206C57.0461 23.1378 56.1557 20.8492 55.2512 18.5664C55.1342 18.2798 54.9751 18.0119 54.8359 17.7358C54.7727 17.6585 54.7177 17.6585 54.6744 17.758Z" fill="white"/>
<path d="M35.0578 34.3353C33.3136 34.4111 31.5698 34.1733 29.9096 33.6332C27.2056 32.7393 25.1814 31.0592 24.0816 28.4277C22.3101 24.1921 22.1159 19.8864 23.8639 15.5817C24.8725 13.1012 26.7165 11.3918 29.2275 10.5178C32.589 9.34774 36.0395 9.30092 39.4701 10.1773C43.4705 11.1999 45.7556 13.9214 46.5945 17.8738C47.224 20.8446 47.2017 23.8411 46.426 26.7861C45.4361 30.549 43.0329 32.9137 39.2595 33.8907C37.8886 34.2458 36.4726 34.3956 35.0578 34.3353ZM42.2279 21.9749C42.3297 20.51 42.1248 19.0399 41.6265 17.6586C40.8367 15.4811 39.2618 14.2385 37.0422 13.7623C35.7425 13.4923 34.403 13.4752 33.0968 13.712C30.5098 14.1543 28.6939 15.5338 27.9603 18.0576C27.1412 20.8879 27.1214 23.7557 28.1943 26.5498C28.6859 27.8397 29.6414 28.8996 30.8737 29.5217C32.8066 30.5397 34.8519 30.5572 36.9147 30.205C39.4162 29.7779 40.99 28.2452 41.754 25.8337C42.1426 24.5864 42.3031 23.2792 42.2279 21.9749Z" fill="white"/>
<path d="M176.758 18.3068C176.758 20.6071 176.758 22.9082 176.758 25.21C176.758 26.3918 176.524 27.5373 176.173 28.6559C175.422 31.0533 173.825 32.7077 171.479 33.5209C168.018 34.7202 164.487 34.7518 161.037 33.5209C157.84 32.3754 156.32 29.8727 155.937 26.5802C155.586 23.586 155.79 20.5825 155.749 17.5837C155.717 15.4003 155.735 13.2159 155.749 11.0314C155.749 9.85431 155.82 9.80167 157.028 9.78763C157.73 9.77983 158.432 9.77983 159.134 9.78763C160.304 9.80518 160.362 9.86017 160.369 11.0747C160.38 12.7514 160.369 14.428 160.369 16.1059C160.369 18.992 160.369 21.8781 160.369 24.7643C160.353 25.3102 160.395 25.8563 160.497 26.393C160.945 28.4171 162.129 29.7206 164.182 30.1617C165.849 30.5197 167.504 30.5349 169.133 29.9277C170.332 29.4842 171.196 28.7085 171.674 27.5068C172.098 26.4138 172.307 25.2495 172.291 24.0774C172.291 19.9823 172.291 15.8871 172.291 11.7919C172.291 11.5193 172.291 11.2455 172.291 10.9729C172.319 9.8742 172.388 9.80283 173.515 9.78294C174.255 9.77007 174.997 9.76422 175.738 9.78294C176.632 9.80985 176.738 9.90578 176.75 10.8149C176.771 12.4132 176.757 14.0126 176.758 15.6121V18.3032V18.3068Z" fill="white"/>
<path d="M142.025 14.8504C141.301 16.1924 140.84 17.5579 140.297 18.8859C138.378 23.5755 136.467 28.2689 134.564 32.9663C134.103 34.0977 134.078 34.1106 132.844 34.1199C132.025 34.1199 131.206 34.1387 130.387 34.1118C129.589 34.0837 129.497 33.948 129.802 33.1757C130.229 32.0876 130.694 31.0146 131.152 29.9393C133.755 23.8036 136.362 17.6698 138.971 11.538C139.853 9.47752 139.492 9.80867 141.569 9.77708C142.271 9.76655 142.973 9.80749 143.675 9.76771C144.377 9.72793 144.752 10.0228 145.012 10.6429C145.766 12.4401 146.551 14.2232 147.328 16.0111C149.655 21.3738 151.983 26.7365 154.309 32.0993C155.199 34.1597 155.352 34.1434 152.977 34.1258C152.353 34.1258 151.728 34.0989 151.105 34.1258C150.461 34.1574 150.121 33.8567 149.868 33.2857C149.16 31.6816 148.381 30.1079 147.681 28.5002C147.376 27.7982 146.944 27.4974 146.16 27.5197C144.522 27.5665 142.884 27.5349 141.246 27.5314C140.933 27.5381 140.621 27.5272 140.31 27.4986C139.919 27.4542 139.747 27.1933 139.88 26.8376C140.234 25.8891 140.612 24.9491 141.012 24.0177C141.195 23.5907 141.621 23.5848 142.018 23.5825C143.032 23.5825 144.047 23.5989 145.06 23.5638C145.793 23.5392 145.914 23.3753 145.623 22.6909C144.538 20.146 143.417 17.6164 142.306 15.0855C142.291 15.0282 142.204 14.9943 142.025 14.8504Z" fill="white"/>
<path d="M121.584 28.0146C121.963 27.7467 122.021 27.3395 122.161 26.9932C124.312 21.6811 126.455 16.3664 128.591 11.0489C129.099 9.78525 129.099 9.78293 130.463 9.77825C131.476 9.77825 132.49 9.76074 133.505 9.78648C134.311 9.80637 134.397 9.928 134.068 10.7002C133.105 12.9596 132.114 15.2061 131.13 17.4561C128.958 22.4206 126.8 27.3922 124.602 32.3427C123.622 34.5435 123.985 34.2615 121.604 34.2838C121.058 34.2896 120.51 34.2522 119.966 34.2908C119.18 34.3481 118.761 33.9866 118.472 33.2764C117.474 30.8193 116.431 28.3832 115.406 25.939C113.356 21.0505 111.307 16.1617 109.257 11.2724C108.634 9.78644 108.641 9.78293 110.285 9.78059C111.143 9.78059 112.004 9.82741 112.859 9.76774C113.715 9.70807 114.19 10.0415 114.511 10.8641C115.888 14.3859 117.326 17.8843 118.746 21.3886C119.55 23.3754 120.358 25.361 121.171 27.3454C121.267 27.5852 121.32 27.8684 121.584 28.0146Z" fill="white"/>
<path d="M13.2424 34.3355C10.7853 34.4104 8.48736 34.0898 6.2982 33.1479C3.80717 32.075 2.03688 30.2743 1.08446 27.747C-0.265781 24.1631 -0.319604 20.4868 0.725249 16.8351C1.62736 13.6923 3.78494 11.6178 6.85514 10.5695C9.37535 9.71919 12.0475 9.41405 14.6945 9.67435C16.1325 9.80539 17.5646 9.94583 18.957 10.353C20.1843 10.7122 20.2569 10.7953 20.2662 12.0379C20.2662 12.7001 20.2662 13.3635 20.244 14.027C20.2241 14.5324 19.9351 14.7126 19.4542 14.5816C19.191 14.509 18.9324 14.4189 18.6715 14.3417C16.1699 13.6069 13.6321 13.3472 11.0463 13.7707C7.86489 14.2914 5.47565 16.1284 4.9269 19.6139C4.61216 21.6136 4.70575 23.5851 5.32003 25.5086C6.13906 28.0921 8.01114 29.5734 10.6016 30.1093C13.3232 30.6721 16.0307 30.4767 18.6902 29.6717C20.1586 29.2271 20.1562 29.2177 20.3282 30.7142C20.6184 33.2403 20.6009 33.2591 18.1438 33.8511C16.5403 34.2387 14.8908 34.4017 13.2424 34.3355Z" fill="white"/>
<path d="M206.287 24.0437C206.287 26.9688 206.293 29.8869 206.287 32.8085C206.287 34.0605 206.222 34.1143 204.957 34.126C204.178 34.1342 203.4 34.119 202.617 34.1178C202.089 34.1178 201.828 33.8569 201.827 33.3304C201.827 32.9793 201.818 32.6283 201.818 32.2773C201.818 26.7071 201.818 21.1365 201.818 15.5655C201.818 15.2531 201.831 14.9407 201.81 14.6295C201.757 13.8795 201.662 13.7578 200.888 13.7449C199.25 13.718 197.611 13.7449 195.973 13.7274C194.907 13.7168 194.829 13.6361 194.803 12.6123C194.788 11.9103 194.803 11.2083 194.813 10.5062C194.813 10.0289 195.069 9.79483 195.54 9.78781C195.813 9.78781 196.086 9.7761 196.359 9.7761H211.67C211.904 9.7761 212.138 9.76674 212.372 9.78312C213.137 9.83695 213.249 9.9294 213.281 10.6841C213.31 11.3861 213.309 12.0881 213.281 12.7902C213.248 13.6092 213.152 13.7098 212.29 13.7262C210.81 13.7508 209.329 13.7332 207.849 13.7367C206.287 13.7367 206.283 13.7426 206.28 15.2789C206.282 18.2001 206.284 21.1217 206.287 24.0437Z" fill="white"/>
<path d="M181.43 21.8111C181.43 18.3446 181.43 14.8777 181.43 11.4105C181.43 11.0993 181.436 10.7869 181.447 10.4745C181.462 10.0603 181.681 9.80984 182.098 9.80516C183.148 9.79346 184.202 9.79346 185.257 9.80516C185.684 9.80516 185.877 10.0813 185.888 10.4897C185.897 10.8407 185.903 11.1917 185.904 11.5427V28.3703C185.904 28.6429 185.898 28.9156 185.904 29.1894C185.934 30.219 186.009 30.315 187.06 30.3196C189.826 30.3337 192.592 30.3196 195.357 30.3267C197.409 30.3267 197.346 30.1559 197.346 32.2783C197.346 34.2674 197.363 34.127 195.491 34.1281C191.402 34.1281 187.312 34.1281 183.221 34.1281C182.87 34.1281 182.519 34.1211 182.168 34.1129C181.7 34.1012 181.458 33.8497 181.446 33.3816C181.439 33.0704 181.432 32.758 181.431 32.4456L181.43 21.8111Z" fill="white"/>
<path d="M85.452 17.9289C85.3724 17.8119 85.2636 17.6036 85.4029 17.5615C85.7211 17.4632 85.679 17.7792 85.741 17.9605L85.452 17.9289Z" fill="white"/>
<path d="M54.6797 17.7581C54.723 17.6598 54.778 17.6622 54.8423 17.7382L54.6797 17.7581Z" fill="white"/>
<path d="M237.434 15.9503C237.778 15.8707 238.012 16.1164 238.272 16.265C241.68 18.2272 245.08 20.2058 248.497 22.1551C249.062 22.4769 249.345 22.836 249.339 23.5287C249.309 27.425 249.325 31.3212 249.32 35.2175C249.32 35.4363 249.39 35.6855 249.158 35.8844C248.788 35.9406 248.526 35.6703 248.236 35.503C244.861 33.5595 241.496 31.5997 238.114 29.6703C237.551 29.3486 237.245 28.9835 237.25 28.299C237.272 24.4027 237.261 20.5065 237.263 16.6102C237.258 16.3821 237.241 16.1375 237.434 15.9503Z" fill="white"/>
<path d="M239.062 13.9354C239.277 13.5668 239.626 13.4568 239.922 13.286C243.09 11.4502 246.272 9.64244 249.424 7.77972C250.146 7.35383 250.734 7.30119 251.472 7.73762C254.624 9.59917 257.803 11.4139 260.973 13.245C261.11 13.3162 261.244 13.3943 261.374 13.479C261.832 13.8078 261.842 14.036 261.403 14.3636C261.275 14.4498 261.141 14.528 261.002 14.5976C257.831 16.4276 254.65 18.2376 251.499 20.0968C250.769 20.5286 250.198 20.5333 249.462 20.0968C246.247 18.1908 242.996 16.3422 239.76 14.4724C239.527 14.3519 239.268 14.2501 239.062 13.9354Z" fill="white"/>
<path d="M261.99 30.1536L251.911 35.9594C251.56 35.7253 251.613 35.4773 251.613 35.2573C251.608 31.8735 251.608 28.4897 251.613 25.1059C251.613 24.1781 251.758 24.0681 252.506 24.4952C255.576 26.2503 258.632 28.0311 261.691 29.8049C261.755 29.8458 261.793 29.9242 261.99 30.1536Z" fill="white"/>
</svg>
